Coordinates
version=1
nRows=27
nColumns=38
inDegrees=no

Units are S.I. units (second, meters, Newtons, ...)
If the header above contains a line with 'inDegrees', this indicates whether rotational values are in degrees (yes) or radians (no).

endheader
time	pelvis_tilt	pelvis_list	pelvis_rotation	pelvis_tx	pelvis_ty	pelvis_tz	hip_flexion_r	hip_adduction_r	hip_rotation_r	knee_angle_r	ankle_angle_r	subtalar_angle_r	mtp_angle_r	hip_flexion_l	hip_adduction_l	hip_rotation_l	knee_angle_l	ankle_angle_l	subtalar_angle_l	mtp_angle_l	lumbar_extension	lumbar_bending	lumbar_rotation	arm_flex_r	arm_add_r	arm_rot_r	elbow_flex_r	pro_sup_r	wrist_flex_r	wrist_dev_r	arm_flex_l	arm_add_l	arm_rot_l	elbow_flex_l	pro_sup_l	wrist_flex_l	wrist_dev_l
1.11	-2.64638	1.47373	-2.0882	0.590945	0.60132	0.907496	-0.324133	-0.143945	-0.233562	0.545325	0.147226	0	0	0.392154	-0.0325734	-0.284736	0.461017	0.0860642	0	0	-0.238967	-0.123529	-0.0313255	-0.195158	-0.20328	0.10719	0.601597	0.405877	0	0	-0.199308	-0.30737	0.301091	0.613609	1.34713	0	0
1.12	-2.56843	1.47452	-2.15967	0.587424	0.615015	0.908413	-0.29129	-0.162496	-0.233327	0.612085	0.0820778	0	0	0.389142	-0.0215817	-0.28124	0.473556	0.0836201	0	0	-0.230012	-0.129803	-0.0356726	-0.200221	-0.20278	0.117315	0.593376	0.397684	0	0	-0.201812	-0.311206	0.304677	0.619039	1.33777	0	0
1.13	-2.479	1.47472	-2.24068	0.583689	0.62867	0.909371	-0.259005	-0.181468	-0.234865	0.678118	0.0141517	0	0	0.381519	-0.00680244	-0.277261	0.475408	0.0817906	0	0	-0.220619	-0.136344	-0.0419408	-0.205858	-0.202164	0.126606	0.58652	0.389614	0	0	-0.204639	-0.316725	0.309814	0.62876	1.32591	0	0
1.14	-2.38157	1.47477	-2.32977	0.579916	0.642065	0.910214	-0.223918	-0.200277	-0.233298	0.743741	-0.0572023	0	0	0.371795	0.00966086	-0.273505	0.471021	0.0819294	0	0	-0.21066	-0.142696	-0.0481093	-0.212012	-0.201184	0.131663	0.581691	0.383397	0	0	-0.207225	-0.323053	0.314542	0.640971	1.31579	0	0
1.15	-2.28765	1.47411	-2.41607	0.576209	0.655213	0.911029	-0.187654	-0.217462	-0.226823	0.806817	-0.1278	0	0	0.360171	0.0261614	-0.269892	0.463817	0.0860085	0	0	-0.201131	-0.148516	-0.0539082	-0.218226	-0.200517	0.13546	0.579417	0.378616	0	0	-0.209489	-0.330001	0.319246	0.654908	1.30549	0	0
1.16	-2.20994	1.4725	-2.48687	0.572711	0.668053	0.911931	-0.150959	-0.232136	-0.216926	0.867813	-0.19168	0	0	0.347274	0.0409782	-0.265953	0.457627	0.0944578	0	0	-0.193502	-0.153554	-0.0595473	-0.223883	-0.19974	0.137036	0.579505	0.377884	0	0	-0.211081	-0.337056	0.320989	0.669901	1.30005	0	0
1.17	-2.15294	1.46928	-2.53771	0.569486	0.680582	0.913101	-0.114062	-0.245603	-0.205355	0.927242	-0.253498	0	0	0.332459	0.0548357	-0.260085	0.452514	0.104932	0	0	-0.188917	-0.158674	-0.0651827	-0.228373	-0.198791	0.137451	0.580698	0.378274	0	0	-0.212127	-0.345565	0.323011	0.687168	1.29422	0	0
1.18	-2.12704	1.46552	-2.55762	0.566517	0.692741	0.9146	-0.0795409	-0.255872	-0.193682	0.981615	-0.311165	0	0	0.315982	0.0661336	-0.253279	0.449461	0.116016	0	0	-0.188096	-0.162451	-0.0714601	-0.231135	-0.197585	0.136634	0.582293	0.38051	0	0	-0.211971	-0.354737	0.324505	0.704813	1.28834	0	0
1.19	-2.12334	1.46199	-2.55587	0.563853	0.704605	0.916295	-0.0501392	-0.261702	-0.174945	1.02011	-0.359657	0	0	0.298362	0.0744084	-0.246969	0.447259	0.126254	0	0	-0.189726	-0.164911	-0.0778669	-0.232522	-0.19593	0.13465	0.584397	0.384786	0	0	-0.210882	-0.364068	0.324411	0.722397	1.28287	0	0
1.2	-2.16412	1.45783	-2.51015	0.561334	0.716253	0.918632	-0.025062	-0.264224	-0.162389	1.06298	-0.362982	0	0	0.274735	0.0794799	-0.240954	0.442065	0.133894	0	0	-0.196877	-0.164725	-0.084216	-0.23238	-0.193936	0.129291	0.586184	0.396323	0	0	-0.208179	-0.373474	0.325214	0.740099	1.27265	0	0
1.21	-2.20946	1.45507	-2.4593	0.558824	0.72764	0.921039	0.00044248	-0.26471	-0.152134	1.10671	-0.329385	0	0	0.251241	0.0822013	-0.234911	0.435733	0.1396	0	0	-0.203872	-0.162335	-0.0916732	-0.230741	-0.192699	0.127028	0.586312	0.405366	0	0	-0.20399	-0.380804	0.322073	0.753066	1.2692	0	0
1.22	-2.25778	1.45309	-2.40487	0.55628	0.738851	0.923537	0.0256591	-0.263668	-0.144829	1.14657	-0.280862	0	0	0.226878	0.0836472	-0.229219	0.42692	0.144016	0	0	-0.210649	-0.158411	-0.100202	-0.227991	-0.192388	0.128374	0.585155	0.410624	0	0	-0.1989	-0.386838	0.316659	0.762968	1.27238	0	0
1.23	-2.31005	1.45165	-2.34629	0.553734	0.749909	0.926147	0.0500291	-0.260768	-0.138877	1.17938	-0.234853	0	0	0.200994	0.084134	-0.224061	0.414851	0.1479	0	0	-0.217395	-0.153044	-0.109179	-0.225258	-0.19187	0.128448	0.583782	0.416856	0	0	-0.192567	-0.391795	0.310488	0.769945	1.28123	0	0
1.24	-2.36744	1.45014	-2.28263	0.551158	0.760902	0.928872	0.0727208	-0.256649	-0.134044	1.20381	-0.198565	0	0	0.172727	0.084338	-0.218948	0.398642	0.151008	0	0	-0.224331	-0.146489	-0.118308	-0.222651	-0.191758	0.129381	0.582224	0.422421	0	0	-0.185391	-0.395665	0.302906	0.774743	1.29221	0	0
1.25	-2.42511	1.44875	-2.21905	0.548572	0.771741	0.931569	0.0948068	-0.251515	-0.129397	1.2208	-0.170897	0	0	0.14352	0.0842226	-0.213483	0.379574	0.152949	0	0	-0.231021	-0.139069	-0.127057	-0.220239	-0.192265	0.130907	0.58089	0.42513	0	0	-0.17698	-0.39898	0.295677	0.777922	1.30311	0	0
1.26	-2.48094	1.44818	-2.15702	0.546027	0.782414	0.934087	0.117024	-0.245021	-0.126056	1.23217	-0.145551	0	0	0.115221	0.0832008	-0.207147	0.359245	0.153763	0	0	-0.236618	-0.130764	-0.13582	-0.218174	-0.193278	0.135031	0.57965	0.426071	0	0	-0.167634	-0.402152	0.288848	0.779964	1.31522	0	0
1.27	-2.53987	1.44797	-2.09154	0.543447	0.792981	0.936512	0.140939	-0.237656	-0.129593	1.2507	-0.107949	0	0	0.0875118	0.081209	-0.199308	0.338434	0.154003	0	0	-0.241766	-0.121304	-0.144464	-0.216661	-0.19458	0.139681	0.578694	0.426106	0	0	-0.157124	-0.40499	0.283084	0.780517	1.32703	0	0
1.28	-2.59271	1.44843	-2.03262	0.541077	0.80346	0.938631	0.162952	-0.229738	-0.128797	1.25322	-0.0797075	0	0	0.0622981	0.0784707	-0.192014	0.319313	0.154868	0	0	-0.245343	-0.112244	-0.152447	-0.215928	-0.195441	0.144044	0.578175	0.426989	0	0	-0.1466	-0.408423	0.277798	0.781881	1.33754	0	0
1.29	-2.64415	1.44914	-1.97513	0.538831	0.813808	0.940575	0.184559	-0.221831	-0.129571	1.25005	-0.0532534	0	0	0.0385357	0.0749823	-0.184928	0.30129	0.155918	0	0	-0.248248	-0.103192	-0.16044	-0.215321	-0.196367	0.150055	0.578095	0.427124	0	0	-0.135745	-0.412289	0.273073	0.783199	1.34747	0	0
1.3	-2.69426	1.44981	-1.91858	0.536655	0.824005	0.942357	0.205429	-0.21441	-0.132213	1.24203	-0.0293939	0	0	0.0158335	0.0710398	-0.1773	0.28423	0.156964	0	0	-0.250993	-0.0941797	-0.168721	-0.214723	-0.196999	0.155426	0.578342	0.426042	0	0	-0.124388	-0.416433	0.26844	0.784508	1.35716	0	0
1.31	-2.74656	1.4501	-1.86001	0.534592	0.834133	0.944009	0.224907	-0.206935	-0.136299	1.22919	-0.00897916	0	0	-0.00690653	0.0665276	-0.169491	0.267176	0.157792	0	0	-0.253885	-0.0850091	-0.176506	-0.214397	-0.197076	0.158744	0.579112	0.425311	0	0	-0.112511	-0.420641	0.264003	0.785775	1.36649	0	0
1.32	-2.79963	1.44962	-1.8004	0.532617	0.844189	0.945549	0.242465	-0.199676	-0.141898	1.21159	0.00797575	0	0	-0.0299815	0.0617641	-0.161166	0.249811	0.158131	0	0	-0.257322	-0.0758493	-0.18431	-0.214324	-0.196606	0.160461	0.580832	0.428059	0	0	-0.100339	-0.425122	0.259803	0.787464	1.37503	0	0
1.33	-2.84947	1.44833	-1.74372	0.530699	0.854185	0.946959	0.258032	-0.193198	-0.148784	1.18948	0.0233044	0	0	-0.0530687	0.0571119	-0.151797	0.232935	0.158268	0	0	-0.261271	-0.0670743	-0.192266	-0.214155	-0.195909	0.161858	0.582906	0.431931	0	0	-0.0880936	-0.429909	0.2555	0.789932	1.38354	0	0
1.34	-2.89258	1.44657	-1.69391	0.528832	0.864153	0.948176	0.271928	-0.187836	-0.156734	1.16338	0.0381209	0	0	-0.0760949	0.053024	-0.141616	0.216163	0.158353	0	0	-0.265272	-0.0590387	-0.200048	-0.213857	-0.195301	0.162991	0.585742	0.435822	0	0	-0.075756	-0.43504	0.252137	0.792938	1.38979	0	0
1.35	-2.92981	1.4445	-1.65058	0.527063	0.874102	0.949165	0.284359	-0.183349	-0.165393	1.13357	0.0534223	0	0	-0.0989496	0.049331	-0.131098	0.199699	0.158577	0	0	-0.269224	-0.0517512	-0.20728	-0.213567	-0.194477	0.161834	0.5896	0.442754	0	0	-0.0636867	-0.44019	0.248586	0.796606	1.39468	0	0
1.36	-2.96141	1.44227	-1.61388	0.525442	0.884044	0.949903	0.295623	-0.179556	-0.174225	1.10053	0.0691502	0	0	-0.121695	0.0460029	-0.120812	0.183374	0.158934	0	0	-0.273062	-0.0452916	-0.213534	-0.212848	-0.193721	0.160184	0.593852	0.450308	0	0	-0.0515815	-0.445388	0.245571	0.800512	1.3984	0	0
1.37	-2.98703	1.43973	-1.58412	0.523943	0.893988	0.950414	0.305343	-0.176738	-0.18408	1.06417	0.0842063	0	0	-0.144788	0.0432934	-0.110988	0.16672	0.159012	0	0	-0.276985	-0.0397365	-0.219099	-0.21155	-0.193015	0.158453	0.59851	0.457051	0	0	-0.0397489	-0.450569	0.242165	0.804523	1.40219	0	0
